<?xml version="1.0" encoding="UTF-8"?>
<svg id="Layer_6" xmlns="http://www.w3.org/2000/svg" version="1.1" viewBox="0 0 32 32">
  <!-- Generator: Adobe Illustrator 29.1.0, SVG Export Plug-In . SVG Version: 2.1.0 Build 142)  -->
  <path fill="currentColor" d="M16.5,2.3c-7.6,0-13.7,6.2-13.7,13.7s6.2,13.7,13.7,13.7,13.7-6.2,13.7-13.7S24.1,2.3,16.5,2.3ZM17.2,24.3c-1.4,0-2.8-.1-4.1-.8-2.6-1.5-5.2-4.2-4.9-7.4.1-2.2,1.5-3.9,1.5-3.9l11.1,10.9s-1,1.1-3.6,1.2h0ZM25.5,15.9c-.1,2.2-1.5,3.9-1.5,3.9l-11.1-10.9s1-1.1,3.6-1.2c2.6-.1,3.8.3,6.4,2.5,2.3,2,2.7,3.9,2.6,5.8h0Z"/>
</svg>