<?xml version="1.0" encoding="UTF-8"?>
<svg xmlns="http://www.w3.org/2000/svg" width="19.93" height="36.36" viewBox="0 0 19.93 36.36">
  <g id="a" data-name="Layer 3">
    <path fill="currentColor" d="M9.97,0C4.46,0,0,4.46,0,9.97s4.46,9.97,9.97,9.97,9.97-4.46,9.97-9.97S15.47,0,9.97,0ZM9.97,13.84c-2.27,0-4.11-1.83-4.11-4.1s1.84-4.1,4.11-4.1,4.11,1.83,4.11,4.1-1.84,4.1-4.11,4.1Z"/>
  </g>
  <g id="b" data-name="Layer 4">
    <path fill="currentColor" d="M9.97,16.43C4.46,16.43,0,20.89,0,26.39s4.46,9.97,9.97,9.97,9.97-4.46,9.97-9.97-4.46-9.97-9.97-9.97ZM9.97,30.59c-2.27,0-4.11-1.88-4.11-4.2s1.84-4.2,4.11-4.2,4.11,1.88,4.11,4.2-1.84,4.2-4.11,4.2Z"/>
  </g>
  <g id="c" data-name="Layer 5">
    <rect fill="currentColor" x="7.64" y="9.29" width="4.65" height="17.77" rx="2.32" ry="2.32"/>
  </g>
</svg>