<svg width="42" height="39" viewBox="0 0 42 39" fill="none" xmlns="http://www.w3.org/2000/svg">
<path d="M26.7715 6.96809H1.69269C0.758076 6.96809 9.53674e-07 7.72616 9.53674e-07 8.66078V11.205C9.53674e-07 12.1396 0.758076 12.8977 1.69269 12.8977H26.7611V36.8549C26.7611 37.8726 27.5815 38.693 28.5991 38.693H31.5899C32.6076 38.693 33.428 37.8726 33.428 36.8549V8.96193C33.428 7.86116 32.5349 6.9577 31.4238 6.9577H26.7507L26.7715 6.96809Z" fill="currentColor"/>
<path d="M14.715 31.2991H39.991C40.936 31.2991 41.7045 30.5515 41.7045 29.6272V27.1142C41.7045 26.1899 40.936 25.4422 39.991 25.4422H14.715V1.8173C14.715 0.809998 13.8842 0 12.8665 0H9.85497C8.8269 0 7.99613 0.809998 7.99613 1.8173V25.4422V29.3261C7.99613 30.4165 8.89959 31.2991 10.0107 31.2991H14.715Z" fill="currentColor"/>
</svg>
