<?xml version="1.0" encoding="UTF-8"?>
<svg id="Layer_5" xmlns="http://www.w3.org/2000/svg" version="1.1" viewBox="0 0 32 32">
  <!-- Generator: Adobe Illustrator 29.1.0, SVG Export Plug-In . SVG Version: 2.1.0 Build 142)  -->
  <path fill="currentColor" d="M20.8,25.7c-.1-1-.8-1.7-1.8-1.7h-6.2c-1.4,0-2.8-.5-3.8-1.5s-2.1-2.2-2.1-4.6,1.7-3.8,3-4.4c.8-.4,1.7-.6,2.6-.6h9c.3,0,.5.2.6.5v2c.1.9,1.2,1.4,1.9.8l5.9-4.9c.6-.6.6-1.6,0-2.1l-6-5.1c-.7-.6-1.9,0-1.9.9v2c0,.3-.2.5-.5.5h-8.6c-1.1,0-2.9.2-4,.4-3.3.7-7.3,5.2-7.3,10.2s2,7.7,4,9.2c1.6,1.1,3.5,1.7,5.5,1.7h8.2c.9,0,1.5-.7,1.5-1.5v-1.9s0,.1,0,.1Z"/>
</svg>