<?xml version="1.0" encoding="UTF-8"?>
<svg id="Layer_5" xmlns="http://www.w3.org/2000/svg" version="1.1" viewBox="0 0 32 32">
  <!-- Generator: Adobe Illustrator 29.1.0, SVG Export Plug-In . SVG Version: 2.1.0 Build 142)  -->
  <path fill="currentColor" d="M11.2,25.6v1.9c0,.8.6,1.5,1.5,1.5h8.2c2,0,3.9-.6,5.5-1.7,2-1.5,4-4.2,4-9.2s-4-9.5-7.3-10.2c-1.1-.2-2.9-.4-4-.4h-8.6c-.3,0-.5-.2-.5-.5v-2c0-1-1.2-1.5-1.9-.9l-6,5.1c-.6.5-.6,1.5,0,2.1l5.9,4.9c.7.6,1.8.1,1.9-.8v-2c.1-.3.3-.5.6-.5h9c.9,0,1.8.2,2.6.6,1.3.6,3,2,3,4.4s-1.1,3.6-2.1,4.6-2.4,1.5-3.8,1.5h-6.2c-1,0-1.7.7-1.8,1.7Z"/>
</svg>