<?xml version="1.0" encoding="UTF-8"?>
<svg id="Layer_3" xmlns="http://www.w3.org/2000/svg" xmlns:xlink="http://www.w3.org/1999/xlink" version="1.1" viewBox="0 0 32 32">
  <!-- Generator: Adobe Illustrator 29.1.0, SVG Export Plug-In . SVG Version: 2.1.0 Build 142)  -->
    <path fill="currentColor" d="M29.3,8.4l-5.3-5.1c-.4-.4-1.1-.4-1.5,0L6.3,19.5c0,.1-.2.3-.3.5l-2.2,7.6c-.2.8.6,1.6,1.4,1.3l7.5-2.5c.2,0,.3-.1.4-.3L29.3,9.9c.4-.4.4-1.1,0-1.5ZM7,25.6l1-2.9,1.9,1.8-2.8,1h0ZM12.2,23.4l-2.9-3,10.2-10.2,3.1,3s-10.4,10.2-10.4,10.2ZM24.4,11.2l-3-3,1.7-1.7,3,3-1.7,1.8h0Z"/>
</svg>