<svg width="46" height="43" viewBox="0 0 46 43" fill="none" xmlns="http://www.w3.org/2000/svg">
<g clip-path="url(#clip0_4_217)">
<path d="M25.121 2.13281C25.121 0.954893 24.1661 0 22.9882 0C21.8102 0 20.8553 0.954893 20.8553 2.13281V40.0067C20.8553 41.1846 21.8102 42.1395 22.9882 42.1395C24.1661 42.1395 25.121 41.1846 25.121 40.0067V2.13281Z" fill="currentColor"/>
<path d="M42.1176 7.71771L28.6501 19.4042C27.6386 20.2837 27.6386 21.8558 28.6501 22.7353L42.1176 34.4218C43.5468 35.6641 45.7675 34.6417 45.7675 32.7508V9.37778C45.7675 7.48684 43.5468 6.46441 42.1176 7.70671V7.71771ZM41.0841 26.1544C41.0841 26.6382 40.5125 26.891 40.1497 26.5612L34.3339 21.2072C34.092 20.9873 34.092 20.6025 34.3339 20.3827L40.1497 15.1166C40.5015 14.7978 41.0731 15.0506 41.0731 15.5234V26.1434L41.0841 26.1544Z" fill="currentColor"/>
<path d="M17.1285 19.4042L3.64997 7.71768C2.22076 6.47538 0 7.49781 0 9.38875V32.7727C0 34.6637 2.22076 35.6861 3.64997 34.4438L17.1175 22.7573C18.1289 21.8778 18.1289 20.3057 17.1175 19.4262L17.1285 19.4042ZM12.0493 21.526L5.5739 27.1988C5.17812 27.5506 4.55147 27.2648 4.55147 26.7371V15.3364C4.55147 14.8087 5.17812 14.5229 5.5739 14.8747L12.0493 20.6025C12.3241 20.8444 12.3241 21.2841 12.0493 21.526Z" fill="currentColor"/>
</g>
<defs>
<clipPath id="clip0_4_217">
<rect width="45.7675" height="42.1395" fill="white"/>
</clipPath>
</defs>
</svg>
