<svg width="43" height="46" viewBox="0 0 43 46" fill="none" xmlns="http://www.w3.org/2000/svg">
<g clip-path="url(#clip0_4_221)">
<path d="M40.0066 25.1211C41.1845 25.1211 42.1394 24.1662 42.1394 22.9883C42.1394 21.8103 41.1845 20.8554 40.0066 20.8554L2.13268 20.8554C0.954762 20.8554 -0.000133514 21.8103 -0.000133514 22.9883C-0.000133514 24.1662 0.954762 25.1211 2.13268 25.1211L40.0066 25.1211Z" fill="currentColor"/>
<path d="M34.4219 42.1176L22.7354 28.6501C21.8559 27.6386 20.2837 27.6386 19.4042 28.6501L7.71773 42.1176C6.47542 43.5468 7.49785 45.7675 9.3888 45.7675H32.7728C34.6637 45.7675 35.6862 43.5468 34.4438 42.1176H34.4219ZM15.9851 41.0841C15.5014 41.0841 15.2485 40.5125 15.5784 40.1497L20.9324 34.3339C21.1523 34.092 21.537 34.092 21.7569 34.3339L27.023 40.1497C27.3418 40.5015 27.0889 41.0731 26.6162 41.0731H15.9961L15.9851 41.0841Z" fill="currentColor"/>
<path d="M22.7354 17.1285L34.4219 3.64997C35.6642 2.22076 34.6417 0 32.7508 0H9.37781C7.48687 0 6.46444 2.22076 7.70674 3.64997L19.3932 17.1175C20.2727 18.1289 21.8449 18.1289 22.7244 17.1175L22.7354 17.1285ZM20.6136 12.0493L14.9407 5.5739C14.5889 5.17812 14.8748 4.55147 15.4025 4.55147H26.8031C27.3308 4.55147 27.6167 5.17812 27.2649 5.5739L21.537 12.0493C21.2952 12.3241 20.8554 12.3241 20.6136 12.0493Z" fill="currentColor"/>
</g>
</svg>
