<?xml version="1.0" encoding="UTF-8"?>
<svg id="Layer_2" xmlns="http://www.w3.org/2000/svg" xmlns:xlink="http://www.w3.org/1999/xlink" version="1.1" viewBox="0 0 32 32">
  <!-- Generator: Adobe Illustrator 29.1.0, SVG Export Plug-In . SVG Version: 2.1.0 Build 142)  -->
  <defs>
    <style>
      .st0 {
        fill: none;
      }

      .st1 {
        clip-path: url(#clippath);
      }
    </style>
    <clipPath id="clippath">
      <rect fill="currentColor" class="st0" x=".3" y="9.3" width="31.4" height="15.3"/>
    </clipPath>
  </defs>
  <g class="st1">
    <g>
      <path fill="currentColor" d="M18.7,9.7h-3.6v14.9h3.6v-14.9Z"/>
      <path fill="currentColor" d="M31.7,9.7h-9.4v14.9h4l-.2-6h5.6c0,.1,0-3.4,0-3.4h-5.7c0,0,0-2.4,0-2.4h5.7v-3.1Z"/>
      <path fill="currentColor" d="M7.7,15.7v3h1.8v2.6h-2.3c-1.2,0-2.4-.7-2.8-1.9-.2-.6-.4-1.4-.4-2.4,0-1.3.5-2.3,1-2.9.7-.8,1.8-1.2,2.9-1.2h4.4v-3.5l-5.2.2c-2.5.1-4.8,1.6-5.9,3.8-.5,1-.9,2.2-.9,3.6,0,2,.8,3.8,1.8,5.1,1.1,1.5,2.8,2.4,4.7,2.4h6.4v-8.8h-5.4Z"/>
    </g>
  </g>
</svg>