<svg width="43" height="43" viewBox="0 0 43 43" fill="none" xmlns="http://www.w3.org/2000/svg">
<path fill-rule="evenodd" clip-rule="evenodd" d="M6.48301 6.6005C6.50073 6.69885 6.44714 6.74873 6.3121 6.75973C6.20393 6.76855 6.09021 6.81668 6.0593 6.86656C6.02848 6.91653 5.90318 6.98246 5.78098 7.01312C5.65878 7.04385 5.53919 7.14413 5.51517 7.23601C5.49115 7.32789 5.39306 7.42363 5.29723 7.44866C5.2014 7.47369 5.12305 7.53987 5.12305 7.59572C5.12305 7.65156 5.02856 7.78602 4.91309 7.89453C4.79761 8.00304 4.70313 8.13725 4.70313 8.19284C4.70313 8.24844 4.65097 8.33713 4.58731 8.39004C4.52357 8.44295 4.44806 8.60277 4.41959 8.74538C4.38247 8.93081 4.33183 8.9907 4.24146 8.95609C4.17209 8.92939 4.11523 8.94425 4.11523 8.98893C4.11523 9.0337 4.15303 9.07031 4.19922 9.07031C4.24541 9.07031 4.2832 9.18142 4.2832 9.31731C4.2832 9.4532 4.24541 9.58766 4.19922 9.61621C4.08307 9.68802 4.08307 33.312 4.19922 33.3838C4.24541 33.4123 4.2832 33.5491 4.2832 33.6876C4.2832 33.8342 4.2481 33.9179 4.19922 33.8877C4.15303 33.8591 4.11523 33.8759 4.11523 33.9247C4.11523 33.9736 4.16403 34.0137 4.22374 34.0137C4.28337 34.0137 4.43295 34.2331 4.55607 34.5013C4.67919 34.7694 4.85707 35.0588 4.95147 35.1442C5.04587 35.2296 5.12305 35.3459 5.12305 35.4026C5.12305 35.4594 5.2014 35.5263 5.29723 35.5513C5.39306 35.5764 5.49115 35.6721 5.51517 35.764C5.53919 35.8559 5.65878 35.9561 5.78098 35.9869C5.90318 36.0175 6.02781 36.0824 6.05779 36.131C6.08786 36.1795 6.20157 36.2245 6.31059 36.2307C6.44597 36.2385 6.50131 36.2867 6.48527 36.3826C6.46923 36.4786 6.51576 36.5191 6.63225 36.5103C6.72597 36.5032 6.80273 36.4677 6.80273 36.4313C6.80273 36.395 6.87832 36.3652 6.9707 36.3652C7.06309 36.3652 7.13867 36.403 7.13867 36.4492C7.13867 36.5655 35.7474 36.5655 35.8193 36.4492C35.8869 36.34 36.1973 36.34 36.1973 36.4492C36.1973 36.5881 36.4025 36.5027 36.4707 36.3354C36.5081 36.244 36.585 36.1992 36.6573 36.2269C36.7249 36.2529 36.8335 36.2209 36.8985 36.1559C36.9636 36.0908 37.1123 36.0136 37.229 35.9844C37.3457 35.9551 37.4608 35.8559 37.4848 35.764C37.5088 35.6721 37.6069 35.5764 37.7028 35.5513C37.7986 35.5263 37.8769 35.4594 37.8769 35.4026C37.8769 35.3459 37.9541 35.2296 38.0485 35.1442C38.1429 35.0588 38.3212 34.7686 38.4449 34.4994C38.5859 34.1919 38.7096 34.0252 38.7772 34.0511C38.8363 34.0738 38.8848 34.0347 38.8848 33.9641C38.8848 33.8904 38.8445 33.8607 38.7903 33.8942C38.7223 33.9362 38.7143 33.8606 38.7616 33.6262C38.8639 33.1197 38.9026 9.72648 38.8014 9.6252C38.6918 9.5156 38.6913 9.07031 38.8008 9.07031C38.847 9.07031 38.8848 9.0337 38.8848 8.98893C38.8848 8.94425 38.8363 8.9262 38.7772 8.94887C38.7096 8.97482 38.5859 8.80811 38.4449 8.50065C38.3212 8.23139 38.1429 7.94123 38.0485 7.85581C37.9541 7.7704 37.8769 7.65408 37.8769 7.59739C37.8769 7.54062 37.7986 7.47369 37.7028 7.44866C37.6069 7.42363 37.5088 7.32789 37.4848 7.23601C37.4608 7.14413 37.3457 7.04495 37.229 7.01564C37.1123 6.98641 36.9598 6.90545 36.8901 6.83574C36.8205 6.76612 36.7102 6.7295 36.6451 6.75453C36.5797 6.77956 36.5 6.73471 36.467 6.65433C36.4014 6.49476 36.1973 6.41632 36.1973 6.55078C36.1973 6.59697 36.1217 6.63477 36.0293 6.63477C35.9369 6.63477 35.8613 6.59697 35.8613 6.55078C35.8613 6.41565 7.26927 6.43656 7.05099 6.57178C6.9408 6.64006 6.86052 6.64745 6.82113 6.59277C6.7106 6.43917 6.45504 6.44496 6.48301 6.6005ZM35.9873 8.30488C36.4238 8.50594 36.7287 8.79846 36.946 9.22434C37.121 9.56742 37.1211 9.57153 37.1211 21.5C37.1211 33.0856 37.1164 33.4416 36.9605 33.7441C36.8722 33.9154 36.6737 34.1766 36.5196 34.3243C35.9247 34.8945 37.0886 34.8537 21.4817 34.8517C7.93098 34.8499 7.33478 34.8434 7.0127 34.6951C6.57623 34.4941 6.27128 34.2015 6.05401 33.7757C5.87899 33.4326 5.87891 33.4285 5.87891 21.5C5.87891 9.57153 5.87899 9.56742 6.05401 9.22434C6.27128 8.79846 6.57623 8.50594 7.0127 8.30488C7.33486 8.15656 7.92938 8.15018 21.5 8.15018C35.0706 8.15018 35.6651 8.15656 35.9873 8.30488ZM8.60151 10.3275C8.50543 10.3664 8.32587 10.518 8.20259 10.6645L7.97852 10.9308V20.1207C7.97852 28.1354 7.99422 29.3105 8.10155 29.3105C8.16916 29.3105 8.26331 29.2382 8.31067 29.1495C8.35812 29.061 9.25701 27.9537 10.3083 26.6889C11.3596 25.424 13.1079 23.3173 14.1934 22.0072C17.19 18.3906 17.1692 18.4132 17.6374 18.2742C18.0611 18.1484 18.5611 18.2039 18.9025 18.4147C19.0678 18.5166 22.495 22.1713 22.8571 22.6317C23.1341 22.9838 23.7573 23.3477 24.0835 23.3477C24.4558 23.3477 24.6071 23.2615 25.4053 22.5947C26.9151 21.3334 27.1684 21.2572 27.8536 21.8581C28.1192 22.0911 32.0793 26.3128 34.1286 28.5478C34.4921 28.9442 34.8418 29.2807 34.9055 29.2957C35.0036 29.3187 35.0215 27.9129 35.0215 20.1748V11.0268L34.83 10.7426C34.7247 10.5864 34.5451 10.4113 34.4311 10.3535C34.2677 10.2709 31.5179 10.2495 21.5 10.2526C14.502 10.2549 8.69767 10.2886 8.60151 10.3275ZM25.825 12.4164C25.4571 12.7633 25.2204 13.0901 24.9487 13.6265C24.7279 14.0623 24.523 14.364 24.445 14.368C24.3584 14.3723 24.3493 14.389 24.4185 14.4169C24.4762 14.4403 24.5234 14.5919 24.5234 14.7541C24.5234 14.9783 24.4832 15.0595 24.3555 15.0928C24.1861 15.1372 24.1155 15.3691 24.2715 15.3691C24.3204 15.3691 24.3555 15.6475 24.3555 16.0361C24.3555 16.4029 24.3933 16.7263 24.4394 16.7549C24.4856 16.7834 24.5234 16.8968 24.5234 17.0068C24.5234 17.1169 24.4856 17.2302 24.4394 17.2588C24.3048 17.342 24.3427 17.4916 24.4846 17.4372C24.5637 17.4068 24.6319 17.444 24.6605 17.5332C24.803 17.9777 24.9262 18.2186 25.2596 18.7055C25.4625 19.002 25.6089 19.2957 25.5849 19.3583C25.5252 19.5139 25.766 19.6976 25.9911 19.6681C26.1951 19.6413 26.4164 19.8471 26.3314 19.9846C26.3016 20.0328 26.2002 20.0723 26.1061 20.0723C26.0121 20.0723 25.8184 20.1554 25.6758 20.2569C25.4926 20.3874 25.4062 20.411 25.3817 20.3374C25.3316 20.1872 25.1113 20.3842 25.1113 20.5793C25.1113 20.6628 24.9245 20.867 24.6914 21.0381C24.4604 21.2077 24.2715 21.3837 24.2715 21.4293C24.2715 21.6234 24.0026 21.4107 23.3171 20.6744C22.8971 20.2234 22.5973 19.8314 22.6106 19.7506C22.6256 19.6603 22.5844 19.6185 22.4951 19.6331C22.3712 19.6535 20.8651 18.1346 20.5184 17.6396C20.3516 17.4016 19.5219 16.7969 19.362 16.7969C19.2907 16.7969 19.2324 16.7448 19.2324 16.6811C19.2324 16.6176 19.1757 16.5185 19.1064 16.4609C19.0032 16.3753 18.9805 16.3811 18.9805 16.4927C18.9805 16.6691 18.5741 16.678 18.507 16.5029C18.4744 16.4181 18.3411 16.377 18.0986 16.377C17.8562 16.377 17.7229 16.4181 17.6903 16.5029C17.6394 16.6357 17.3848 16.6804 17.3848 16.5566C17.3848 16.5168 17.2903 16.5023 17.1748 16.5243C17.0593 16.5464 16.9648 16.6168 16.9648 16.6807C16.9648 16.7446 16.8987 16.8027 16.8179 16.8096C16.737 16.8167 16.6247 16.8266 16.5683 16.8316C16.4572 16.8415 15.2012 18.14 15.2012 18.2449C15.2012 18.28 15.1256 18.3086 15.0332 18.3086C14.9334 18.3086 14.8652 18.3646 14.8652 18.4464C14.8652 18.6507 14.2577 19.4108 14.1327 19.3628C14.0728 19.3398 14.0254 19.3819 14.0254 19.4583C14.0254 19.6434 13.362 20.4922 13.2173 20.4922C13.1536 20.4922 13.1016 20.5439 13.1016 20.6072C13.1016 20.7759 12.4356 21.584 12.2966 21.584C12.2312 21.584 12.1777 21.6462 12.1777 21.7223C12.1777 21.9098 11.6096 22.5918 11.4533 22.5918C11.3843 22.5918 11.3486 22.6252 11.3739 22.6661C11.4157 22.7337 10.7863 23.6066 10.6517 23.6676C10.6202 23.6817 10.4157 23.9369 10.1973 24.2344C9.97885 24.5319 9.76822 24.7754 9.72917 24.7754C9.69012 24.7754 9.6582 21.8842 9.6582 18.3506V11.9258H17.5947C22.8297 11.9258 25.5312 11.9543 25.5312 12.0098C25.5312 12.056 25.4463 12.0981 25.3423 12.1035C25.1937 12.1111 25.1857 12.1216 25.3044 12.1525C25.3876 12.174 25.5415 12.1353 25.6466 12.0665C25.8388 11.9406 26.2091 11.8496 26.2871 11.9092C26.3102 11.9268 26.1023 12.1551 25.825 12.4164ZM33.2368 11.9717C33.3643 12.0115 33.383 12.8496 33.2565 12.8496C33.2095 12.8496 33.1081 12.7173 33.031 12.5557C32.9539 12.394 32.8505 12.2611 32.8014 12.2605C32.7521 12.2597 32.7686 12.2184 32.8379 12.1685C32.9429 12.093 32.9383 12.0862 32.8108 12.1275C32.6484 12.1802 32.334 12.0519 32.334 11.9332C32.334 11.868 32.9945 11.8962 33.2368 11.9717ZM9.99414 12.0964C9.99414 12.1411 10.0508 12.1777 10.1201 12.1777C10.1894 12.1777 10.2461 12.1629 10.2461 12.1447C10.2461 12.1266 10.1894 12.09 10.1201 12.0633C10.0508 12.0368 9.99414 12.0517 9.99414 12.0964ZM30.1222 12.7152C31.5013 13.0823 32.4734 14.1963 32.6311 15.5902C32.7797 16.9032 31.9812 18.3155 30.779 18.8659C28.285 20.0077 25.5708 17.8967 26.1189 15.2414C26.2571 14.572 26.4725 14.1698 26.9799 13.6333C27.7929 12.7735 29.008 12.4184 30.1222 12.7152ZM33.3418 22.0409C33.3418 24.0325 33.3118 25.1199 33.256 25.1544C33.2089 25.1836 33.1132 25.0708 33.0434 24.9037C32.9736 24.7367 32.8449 24.5733 32.7573 24.5407C32.5144 24.4503 30.6543 22.4167 30.6543 22.2416C30.6543 22.1515 30.5935 22.0876 30.5073 22.087C30.3737 22.0863 29.2504 20.9392 29.322 20.8765C29.3997 20.8084 30.2444 20.7765 30.2838 20.8402C30.3566 20.9579 30.5703 20.9218 30.5703 20.7918C30.5703 20.6569 30.859 20.537 30.9895 20.6177C31.0361 20.6465 31.0742 20.63 31.0742 20.5811C31.0742 20.5322 31.1309 20.4922 31.2002 20.4922C31.2695 20.4922 31.3262 20.5332 31.3262 20.5831C31.3262 20.6332 31.3735 20.6576 31.4311 20.6375C31.4889 20.6172 31.5247 20.5373 31.5109 20.4598C31.4907 20.3475 31.529 20.3298 31.6998 20.3727C31.876 20.4169 31.9141 20.3966 31.9141 20.2583C31.9141 20.0696 32.1344 19.9428 32.193 20.098C32.2157 20.1583 32.2597 20.1314 32.3034 20.0303C32.3835 19.8449 33.1787 18.993 33.2788 18.9853C33.3135 18.9827 33.3418 20.3576 33.3418 22.0409Z" fill="currentColor"/>
</svg>
