<svg width="29" height="28" viewBox="0 0 29 28" fill="none" xmlns="http://www.w3.org/2000/svg">
<path d="M15.622 3.03647L25.9276 1.99364C26.0912 1.97319 26.2344 2.11633 26.2139 2.29013L24.7621 12.7082C24.7315 12.9229 24.4759 13.0047 24.3225 12.8513L20.7953 9.21166L16.0003 13.9453C15.8981 14.0475 15.7345 14.0475 15.6323 13.9453L13.9249 12.2072C13.8226 12.105 13.8226 11.9414 13.9249 11.8392L18.6994 7.10555L15.4482 3.47609C15.3051 3.32274 15.4073 3.06714 15.6118 3.04669L15.622 3.03647Z" fill="currentColor"/>
<path d="M12.5855 24.2407L2.27992 25.2835C2.11634 25.3039 1.97321 25.1608 1.99365 24.987L3.44544 14.5689C3.47611 14.3542 3.7317 14.2724 3.88506 14.4258L7.41228 18.0655L12.2072 13.3318C12.3095 13.2296 12.4731 13.2296 12.5753 13.3318L14.2827 15.0699C14.3849 15.1721 14.3849 15.3357 14.2827 15.438L9.50816 20.1716L12.7593 23.801C12.9025 23.9544 12.8002 24.21 12.5958 24.2304L12.5855 24.2407Z" fill="currentColor"/>
</svg>
