<svg width="43" height="43" viewBox="0 0 43 43" fill="none" xmlns="http://www.w3.org/2000/svg">
<g clip-path="url(#clip0_4_250)">
<path d="M36.4779 7.91229H4.97208C4.90834 7.92026 4.86053 7.96807 4.86053 8.03181V33.7607C4.86053 33.944 5.0677 34.0476 5.21113 33.944L12.8127 28.5257C12.9481 28.4301 13.0119 28.2628 12.9641 28.0954C12.5418 26.6373 10.741 19.4102 15.2828 15.8087C20.5577 11.6254 27.713 14.5975 29.0118 15.1951C29.1393 15.2509 29.2907 15.227 29.3943 15.1314L36.6372 8.32663C36.7966 8.18321 36.693 7.92026 36.4779 7.92026V7.91229Z" fill="currentColor"/>
<path d="M28.6453 16.6453L14.9003 28.2229C14.7489 28.3504 14.7489 28.5814 14.9003 28.701C16.3425 29.8962 22.9879 34.924 29.0357 29.0436C35.0835 23.1631 30.1353 17.705 29.0755 16.6532C28.956 16.5417 28.7807 16.5337 28.6532 16.6373L28.6453 16.6453Z" fill="currentColor"/>
<path d="M40.7089 4.70911H0.844615V37.3703H40.7089V4.70911Z" stroke="currentColor" stroke-width="0.812744" stroke-miterlimit="10"/>
</g>
</svg>
