<?xml version="1.0" encoding="UTF-8"?>
<svg id="Layer_2" xmlns="http://www.w3.org/2000/svg" xmlns:xlink="http://www.w3.org/1999/xlink" version="1.1" viewBox="0 0 32 32">
  <!-- Generator: Adobe Illustrator 29.1.0, SVG Export Plug-In . SVG Version: 2.1.0 Build 142)  -->
  <defs>
    <clipPath id="clippath">
      <rect x="4.4" y="2.7" width="23.3" height="27.4" fill="none"/>
    </clipPath>
  </defs>
  <g clip-path="url(#clippath)">
    <g>
      <path fill="currentColor" d="M22.3,10.8l-4.3-4.3c-.2-.2-.6-.4-.9-.4H5.6c-.7,0-1.3.6-1.3,1.3v21.4c0,.7.6,1.3,1.3,1.3h15.8c.7,0,1.3-.6,1.3-1.3V11.7c0-.3-.1-.7-.4-.9ZM17.5,8.9c0-.1.2-.2.3-.1l2.2,2.3s0,.3-.1.3h-2.2s-.2,0-.2-.2c0,0,0-2.3,0-2.3ZM21.2,27.8c0,.2-.2.4-.4.4H6.4c-.2,0-.4-.2-.4-.4l.3-19.5c0-.2.2-.4.4-.4h9.1c.2,0,.4.2.4.4l.2,4.3c0,.2.2.4.4.4h4.1c.2,0,.4.2.4.4v14.5h-.1Z"/>
      <path fill="currentColor" d="M27.3,7.3l-4.3-4.3c-.2-.2-.6-.4-.9-.4h-11.5c-.7,0-1.3.6-1.3,1.3v2.3h1.9v-1.3c0-.2.2-.4.4-.4h9.1c.2,0,.4.2.4.4l.2,4.3c0,.2.2.4.4.4h4.1c.2,0,.4.2.4.4v14.5c0,.2-.2.4-.4.4h-3.1v1.8h3.7c.7,0,1.3-.6,1.3-1.3V8.3c0-.3-.1-.7-.4-.9h0ZM24.8,7.8h-2.2s-.2,0-.2-.2v-2.3c0,0,.2-.2.3,0l2.2,2.3s0,.3,0,.3Z"/>
      <path fill="currentColor" d="M18.9,15.4h-10.6c-.2,0-.4.2-.4.3v1.1c0,.2.2.3.4.3h10.6c.2,0,.4-.2.4-.3v-1.1c0-.2-.2-.3-.4-.3Z"/>
      <path fill="currentColor" d="M19,18.1h-10.7c-.2,0-.4.2-.4.3v1.3c0,.2.2.3.4.3h10.7c.2,0,.4-.2.4-.3v-1.3c0-.2-.2-.3-.4-.3Z"/>
      <path fill="currentColor" d="M14.4,21.1h-6.2c-.2,0-.4.2-.4.3v1c0,.2.2.3.4.3h6.2c.2,0,.4,0,.4-.3v-1.1c0-.2-.2-.3-.4-.3h0Z"/>
    </g>
  </g>
</svg>