<svg width="37" height="34" viewBox="0 0 37 34" fill="none" xmlns="http://www.w3.org/2000/svg">
<g clip-path="url(#clip0_4_225)">
<path d="M35.631 4.55145C35.5761 3.64995 34.5316 3.1992 33.828 3.75989L30.6618 6.33246C27.2867 2.51758 22.2954 0.0439558 16.7985 -1.96794e-05C7.13489 -0.0879707 -0.37393 7.3329 0.010856 16.5678C0.406636 25.8026 8.5531 33.3554 18.2167 33.4434C19.7669 33.4544 21.262 33.2675 22.6692 32.9157C23.032 32.8277 23.021 32.289 22.6582 32.212C14.4128 30.508 8.41018 25.5937 7.59663 19.734C6.86004 14.5009 9.60851 8.57521 16.3917 8.54222C18.9973 8.53123 22.4604 11.3347 23.4388 12.1812L19.426 15.4354C18.7224 15.9961 18.9533 17.1175 19.8218 17.3593L35.2682 21.7129C36.0048 21.9218 36.7194 21.3391 36.6754 20.5695L35.631 4.56244V4.55145Z" fill="currentColor"/>
</g>
</svg>
