<svg width="37" height="38" viewBox="0 0 37 38" fill="none" xmlns="http://www.w3.org/2000/svg">
<g clip-path="url(#clip0_4_244)">
<path d="M20.2506 2.3307C20.2506 1.04349 19.2071 0 17.9199 0C16.6327 0 15.5892 1.04349 15.5892 2.3307V20.0968C15.5892 21.384 16.6327 22.4275 17.9199 22.4275C19.2071 22.4275 20.2506 21.384 20.2506 20.0968V2.3307Z" fill="currentColor"/>
<path d="M24.0875 2.20978L24.1535 8.19045C28.7049 10.6201 31.6733 15.6333 31.0686 21.2842C30.42 27.3528 25.5167 32.278 19.4481 32.9487C11.4885 33.8282 4.74926 27.6166 4.74926 19.833C4.74926 14.7648 7.60767 10.3672 11.8073 8.15747V2.44065C4.1446 5.34303 -1.0665 13.2256 0.186804 22.1527C1.33017 30.2881 8.00345 36.7416 16.1609 37.654C27.1878 38.8854 36.5216 30.2881 36.5216 19.5141C36.5216 11.4666 31.3105 4.65042 24.0875 2.22077V2.20978Z" fill="currentColor"/>
</g>
</svg>
