<svg width="35" height="36" viewBox="0 0 35 36" fill="none" xmlns="http://www.w3.org/2000/svg">
<path d="M0 15.9741V35.6861H18.8985V15.9741H0ZM15.3255 32.0691H3.57301V20.3167H15.3255V32.0691Z" fill="currentColor"/>
<path d="M15.8861 17.2274C15.6882 17.0295 15.6882 16.7107 15.8861 16.5128L23.3179 9.24586L21.0972 9.11393C20.8443 9.10294 20.6354 8.88306 20.6245 8.6302L20.5695 6.88217C20.5695 6.60733 20.7784 6.36546 21.0642 6.36546L28.8369 6.25552C29.1117 6.25552 29.3426 6.4754 29.3426 6.75025L29.4415 14.7098C29.4415 14.9847 29.2217 15.2155 28.9358 15.2155H26.6491C26.3962 15.2155 26.1874 15.0286 26.1544 14.7868L25.9345 13.2586C25.8795 12.8519 25.3738 12.6869 25.088 12.9728L18.7115 19.3382C18.5136 19.5361 18.2058 19.5361 18.0079 19.3382L15.8751 17.2384L15.8861 17.2274Z" fill="currentColor"/>
<path d="M5.09015 -7.62939e-06V30.486H34.9055V-7.62939e-06H5.09015ZM31.1676 26.1874H8.5862V4.23264H31.1676V26.1874Z" fill="currentColor"/>
</svg>
