<svg width="38" height="38" viewBox="0 0 38 38" fill="none" xmlns="http://www.w3.org/2000/svg">
<g clip-path="url(#clip0_4_234)">
<path d="M0.648682 18.5027L8.63024 18.3048C8.63024 18.3048 9.76261 9.26783 18.7226 9.04795C24.5164 9.56466 25.5938 11.4116 25.5938 11.4116L22.6474 15.4464C22.2297 16.0181 22.6474 16.8206 23.351 16.8206L36.4448 16.7107C36.9285 16.7107 37.3133 16.3039 37.3023 15.8312L36.9835 3.23219C36.9615 2.5066 36.1149 2.1328 35.5652 2.59455L32.2121 5.41997C32.2121 5.41997 28.2763 0.0659546 18.5907 -8.69561e-06C8.90508 -0.065972 4.43058 7.15701 4.43058 7.15701C4.43058 7.15701 0.835578 11.9064 0.648682 18.5137V18.5027Z" fill="currentColor"/>
<path d="M36.6536 19.0304L28.6721 19.2283C28.6721 19.2283 27.5397 28.2653 18.5797 28.4851C12.7859 27.9684 11.7085 26.1215 11.7085 26.1215L14.6549 22.0867C15.0727 21.515 14.6549 20.7125 13.9513 20.7125L0.857569 20.8224C0.373839 20.8224 -0.0109471 21.2292 4.67352e-05 21.7019L0.318869 34.3009C0.340857 35.0265 1.18739 35.4003 1.73708 34.9386L5.09021 32.1131C5.09021 32.1131 9.02602 37.4562 18.7116 37.5221C28.3972 37.5881 32.8717 30.3651 32.8717 30.3651C32.8717 30.3651 36.4667 25.6157 36.6536 19.0084V19.0304Z" fill="currentColor"/>
</g>
<defs>
<clipPath id="clip0_4_234">
<rect width="37.3022" height="37.5331" fill="white"/>
</clipPath>
</defs>
</svg>
