<svg width="36" height="36" viewBox="0 0 36 36" fill="none" xmlns="http://www.w3.org/2000/svg">
<path d="M35.1474 5.15613L30.3981 0.714602C29.9033 0.252859 29.2547 0 28.5841 0H2.79244C1.33026 0 0.14292 1.18734 0.131927 2.64953L0 33.3334C0 34.8066 1.18734 36.005 2.66052 36.005H33.3334C34.8066 36.005 35.994 34.8176 35.994 33.3444V7.10205C35.994 6.36546 35.6861 5.66185 35.1474 5.15613ZM9.32281 3.15524H16.3589V10.9939H23.34L23.2081 3.15524H24.9561L25.099 12.7749H9.32281V3.15524ZM28.5181 32.8057H7.60776V21.3941H28.5181V32.8057ZM33.0586 17.4803C33.0586 17.7661 32.8277 17.997 32.5419 17.997H3.51804C3.2322 17.997 3.00133 17.7661 3.00133 17.4803V3.48506C3.00133 3.19922 3.2322 2.96835 3.51804 2.96835H5.37601C5.66185 2.96835 5.89272 3.19922 5.89272 3.48506L5.98067 14.7428C5.98067 15.0286 6.21154 15.2595 6.49738 15.2595H27.1439C27.4297 15.2595 27.6716 15.0176 27.6606 14.7318L27.5617 4.03475C27.5617 3.60599 28.0564 3.35313 28.3972 3.61699L32.8387 6.99211C32.9706 7.09105 33.0476 7.24497 33.0476 7.40987V17.4913L33.0586 17.4803Z" fill="currentColor"/>
</svg>
