<svg width="43" height="43" viewBox="0 0 43 43" fill="none" xmlns="http://www.w3.org/2000/svg">
<g clip-path="url(#clip0_4_256)">
<path d="M35.9425 19.6417L36.1671 10.6116C36.2045 9.13311 35.0161 7.91663 33.5376 7.91663H27.6423C26.9312 7.91663 26.2574 7.5704 25.8363 6.99958L24.5263 5.19357C24.0584 4.54789 23.3098 4.16423 22.505 4.16423H12.9416C12.1742 4.16423 11.4631 4.54789 11.042 5.19357L9.8629 7.00894C9.47924 7.59847 8.82421 7.9447 8.12239 7.9447L4.44486 7.90727C2.70434 7.88855 1.27263 9.29219 1.27263 11.0421V27.4646C1.27263 29.2145 2.70434 30.6275 4.45421 30.6088L22.8045 30.4216" stroke="currentColor" stroke-width="0.935759" stroke-linejoin="round"/>
<path d="M32.2369 38.1416C37.498 38.1416 41.763 33.8767 41.763 28.6156C41.763 23.3545 37.498 19.0896 32.2369 19.0896C26.9758 19.0896 22.7109 23.3545 22.7109 28.6156C22.7109 33.8767 26.9758 38.1416 32.2369 38.1416Z" stroke="currentColor" stroke-width="0.935759" stroke-linejoin="round"/>
<path d="M18.5842 24.4701C22.1346 24.4701 25.0129 21.5919 25.0129 18.0415C25.0129 14.491 22.1346 11.6128 18.5842 11.6128C15.0337 11.6128 12.1555 14.491 12.1555 18.0415C12.1555 21.5919 15.0337 24.4701 18.5842 24.4701Z" stroke="currentColor" stroke-width="0.935759" stroke-linejoin="round"/>
<path d="M32.3024 34.5015C35.4343 34.5015 37.9731 31.9626 37.9731 28.8308C37.9731 25.699 35.4343 23.1601 32.3024 23.1601C29.1706 23.1601 26.6317 25.699 26.6317 28.8308C26.6317 31.9626 29.1706 34.5015 32.3024 34.5015Z" fill="currentColor"/>
</g>
<defs>
<clipPath id="clip0_4_256">
<rect width="42.2308" height="42.1092" fill="white"/>
</clipPath>
</defs>
</svg>
