<svg width="37" height="34" viewBox="0 0 37 34" fill="none" xmlns="http://www.w3.org/2000/svg">
<g clip-path="url(#clip0_4_239)">
<path d="M1.04415 4.56241L-0.000266959 20.5695C-0.0442425 21.3391 0.67036 21.9217 1.40695 21.7129L16.8533 17.3593C17.7219 17.1174 17.9527 15.996 17.2491 15.4354L13.2364 12.1812C14.2148 11.3346 17.6779 8.5312 20.2834 8.54219C27.0667 8.57518 29.8151 14.5009 29.0785 19.734C28.265 25.5937 22.2623 30.508 14.0169 32.212C13.6541 32.289 13.6431 32.8277 14.0059 32.9156C15.4132 33.2674 16.9083 33.4543 18.4585 33.4433C28.1221 33.3554 36.2685 25.8026 36.6643 16.5677C37.0491 7.33287 29.5403 -0.0880012 19.8767 -5.0197e-05C14.3797 0.0439253 9.3885 2.51755 6.01338 6.33243L2.84715 3.75986C2.14354 3.19917 1.09912 3.64992 1.04415 4.55142V4.56241Z" fill="currentColor"/>
</g>
</svg>
